<svg xmlns="http://www.w3.org/2000/svg" version="1.1" xmlns:xlink="http://www.w3.org/1999/xlink" xmlns:svgjs="http://svgjs.dev/svgjs" viewBox="0 0 800 800" width="800" height="800"><g stroke-width="3.5" stroke="hsla(0, 0%, 0%, 1.00)" fill="none"><circle r="7.2368421052631575" cx="0" cy="0" fill="hsla(0, 0%, 0%, 1.00)" stroke="none" opacity="0.35"></circle><circle r="7.2368421052631575" cx="200" cy="0" fill="hsla(0, 0%, 0%, 1.00)" stroke="none" opacity="0.35"></circle><circle r="7.2368421052631575" cx="400" cy="0" fill="hsla(0, 0%, 0%, 1.00)" stroke="none" opacity="0.35"></circle><circle r="7.2368421052631575" cx="600" cy="0" fill="hsla(0, 0%, 0%, 1.00)" stroke="none" opacity="0.35"></circle><circle r="7.2368421052631575" cx="800" cy="0" fill="hsla(0, 0%, 0%, 1.00)" stroke="none" opacity="0.35"></circle><circle r="7.2368421052631575" cx="0" cy="160" fill="hsla(0, 0%, 0%, 1.00)" stroke="none" opacity="0.35"></circle><circle r="7.2368421052631575" cx="200" cy="160" fill="hsla(0, 0%, 0%, 1.00)" stroke="none" opacity="0.35"></circle><circle r="7.2368421052631575" cx="400" cy="160" fill="hsla(0, 0%, 0%, 1.00)" stroke="none" opacity="0.35"></circle><circle r="7.2368421052631575" cx="600" cy="160" fill="hsla(0, 0%, 0%, 1.00)" stroke="none" opacity="0.35"></circle><circle r="7.2368421052631575" cx="800" cy="160" fill="hsla(0, 0%, 0%, 1.00)" stroke="none" opacity="0.35"></circle><circle r="7.2368421052631575" cx="0" cy="320" fill="hsla(0, 0%, 0%, 1.00)" stroke="none" opacity="0.35"></circle><circle r="7.2368421052631575" cx="200" cy="320" fill="hsla(0, 0%, 0%, 1.00)" stroke="none"></circle><circle r="7.2368421052631575" cx="400" cy="320" fill="hsla(0, 0%, 0%, 1.00)" stroke="none"></circle><circle r="7.2368421052631575" cx="600" cy="320" fill="hsla(0, 0%, 0%, 1.00)" stroke="none" opacity="0.35"></circle><circle r="7.2368421052631575" cx="800" cy="320" fill="hsla(0, 0%, 0%, 1.00)" stroke="none" opacity="0.35"></circle><circle r="7.2368421052631575" cx="0" cy="480" fill="hsla(0, 0%, 0%, 1.00)" stroke="none" opacity="0.35"></circle><circle r="7.2368421052631575" cx="200" cy="480" fill="hsla(0, 0%, 0%, 1.00)" stroke="none"></circle><circle r="7.2368421052631575" cx="400" cy="480" fill="hsla(0, 0%, 0%, 1.00)" stroke="none"></circle><circle r="7.2368421052631575" cx="600" cy="480" fill="hsla(0, 0%, 0%, 1.00)" stroke="none" opacity="0.35"></circle><circle r="7.2368421052631575" cx="800" cy="480" fill="hsla(0, 0%, 0%, 1.00)" stroke="none" opacity="0.35"></circle><circle r="7.2368421052631575" cx="0" cy="640" fill="hsla(0, 0%, 0%, 1.00)" stroke="none" opacity="0.35"></circle><circle r="7.2368421052631575" cx="200" cy="640" fill="hsla(0, 0%, 0%, 1.00)" stroke="none" opacity="0.35"></circle><circle r="7.2368421052631575" cx="400" cy="640" fill="hsla(0, 0%, 0%, 1.00)" stroke="none" opacity="0.35"></circle><circle r="7.2368421052631575" cx="600" cy="640" fill="hsla(0, 0%, 0%, 1.00)" stroke="none" opacity="0.35"></circle><circle r="7.2368421052631575" cx="800" cy="640" fill="hsla(0, 0%, 0%, 1.00)" stroke="none" opacity="0.35"></circle><circle r="7.2368421052631575" cx="0" cy="800" fill="hsla(0, 0%, 0%, 1.00)" stroke="none" opacity="0.35"></circle><circle r="7.2368421052631575" cx="200" cy="800" fill="hsla(0, 0%, 0%, 1.00)" stroke="none" opacity="0.35"></circle><circle r="7.2368421052631575" cx="400" cy="800" fill="hsla(0, 0%, 0%, 1.00)" stroke="none" opacity="0.35"></circle><circle r="7.2368421052631575" cx="600" cy="800" fill="hsla(0, 0%, 0%, 1.00)" stroke="none" opacity="0.35"></circle><circle r="7.2368421052631575" cx="800" cy="800" fill="hsla(0, 0%, 0%, 1.00)" stroke="none" opacity="0.35"></circle></g></svg>
